<?xml version="1.0" encoding="UTF-8"?>
<!-- Do not edit this file with editors other than draw.io -->
<!DOCTYPE svg PUBLIC "-//W3C//DTD SVG 1.1//EN" "http://www.w3.org/Graphics/SVG/1.1/DTD/svg11.dtd">
<svg width="800" height="800" xmlns="http://www.w3.org/2000/svg">
  <style>
    .box {
      fill: white;
      stroke: black;
      stroke-width: 1px;
      rx: 10px;
      ry: 10px;
    }
    .text {
      font-family: Arial, sans-serif;
      font-size: 14px;
      text-anchor: middle;
    }
    .line {
      stroke: black;
      stroke-width: 1px;
    }
  </style>
  <rect x="50" y="300" width="150" height="50" class="box"/>
  <text x="125" y="330" class="text">Ingestion</text>
  <text x="125" y="350" class="text">Module</text>
  
  <rect x="50" y="400" width="150" height="50" class="box"/>
  <text x="125" y="430" class="text">Log Panies</text>
  <text x="125" y="450" class="text">Ca Ineraction</text>
  
  <line x1="125" y1="350" x2="125" y2="400" class="line"/>
  
  <rect x="400" y="100" width="200" height="50" class="box"/>
  <text x="500" y="130" class="text">Data Ingestion</text>
  <text x="500" y="150" class="text">Module</text>
  
  <rect x="400" y="200" width="200" height="50" class="box"/>
  <text x="500" y="230" class="text">Frgtstvon</text>
  <text x="500" y="250" class="text">189 apponcent</text>
  
  <rect x="400" y="300" width="200" height="50" class="box"/>
  <text x="500" y="330" class="text">Proccleasd</text>
  <text x="500" y="350" class="text">Log Ccomment</text>
  
  <rect x="400" y="400" width="200" height="50" class="box"/>
  <text x="500" y="430" class="text">Critical and</text>
  <text x="500" y="450" class="text">Aumated Generation</text>
  
  <rect x="400" y="500" width="200" height="50" class="box"/>
  <text x="500" y="530" class="text">Classifcation</text>
  <text x="500" y="550" class="text">Larning Monuler</text>
  
  <rect x="400" y="600" width="200" height="50" class="box"/>
  <text x="500" y="630" class="text">Reporting</text>
  <text x="500" y="650" class="text">Lactg Satobourt</text>
  
  <rect x="650" y="200" width="200" height="50" class="box"/>
  <text x="750" y="230" class="text">Classifcation Module</text>
  <text x="750" y="250" class="text">103 ung Comfors</text>
  
  <rect x="650" y="400" width="200" height="50" class="box"/>
  <text x="750" y="430" class="text">Inturtanfications</text>
  <text x="750" y="450" class="text">Caning Metuttiont</text>
  
  <rect x="650" y="600" width="200" height="50" class="box"/>
  <text x="750" y="630" class="text">Data Storages</text>
  
  <line x1="500" y1="150" x2="500" y2="200" class="line"/>
  <line x1="500" y1="250" x2="500" y2="300" class="line"/>
  <line x1="500" y1="350" x2="500" y2="400" class="line"/>
  <line x1="500" y1="450" x2="500" y2="500" class="line"/>
  <line x1="500" y1="550" x2="500" y2="600" class="line"/>
  
  <line x1="600" y1="225" x2="650" y2="225" class="line"/>
  <line x1="600" y1="425" x2="650" y2="425" class="line"/>
  <line x1="600" y1="625" x2="650" y2="625" class="line"/>
  
  <line x1="500" y1="225" x2="650" y2="225" class="line"/>
</svg>
